<svg xmlns="http://www.w3.org/2000/svg" viewBox="0 0 352.79 55.27"><defs><style>.cls-1{fill:#723080;}.cls-2{fill:none;stroke-width:2.9px;}.cls-2,.cls-3,.cls-4{stroke:#2886b7;}.cls-2,.cls-4{stroke-linecap:round;}.cls-3,.cls-4{fill:#2886b7;}.cls-3{stroke-width:2px;}.cls-4{stroke-miterlimit:4;stroke-width:2px;}</style></defs><g id="Calque_2" data-name="Calque 2"><g id="Calque_1-2" data-name="Calque 1"><path class="cls-1" d="M12.83,12.83c8.91,0,12.77,6,12.77,12.49S21.74,37.81,12.83,37.81h-9V54.23H0V12.83Zm9,12.49c0-4.28-2.13-9.11-9-9.11h-9V34.43h9C19.67,34.43,21.8,29.67,21.8,25.32Z"/><path class="cls-1" d="M59.75,54.23H55.27L43.4,37.12H34.71V54.23h-3.8V12.83H43.75c8.9,0,12.76,5.66,12.76,12.15,0,5.59-2.83,10.42-9.11,11.73ZM52.72,25c0-4.28-2.14-8.77-9-8.77h-9V33.74h9C50.58,33.74,52.72,29.33,52.72,25Z"/><path class="cls-1" d="M88.87,12.83v3.38H69.21V30.77H85.42v3.39H69.21V50.85H88.87v3.38H65.41V12.83ZM81.63,0l1.93,2.76L74,8.28l-.83-1.17Z"/><path class="cls-1" d="M114.26,11.94c4.9,0,10.29,1.65,13.6,4.14v4a21.45,21.45,0,0,0-13.6-4.62c-10,0-17.25,7.24-17.25,18.07s7.25,18.08,17.25,18.08A21.45,21.45,0,0,0,127.86,47v4c-3.31,2.49-8.7,4.14-13.6,4.14-11.52,0-21.18-8.21-21.18-21.6S102.74,11.94,114.26,11.94Z"/><path class="cls-1" d="M190.51,12.83l25,33.75V12.83h3.59v41.4h-2.62L191.47,20.49V54.23h-3.58V12.83Z"/><path class="cls-1" d="M226.8,46.71a17.77,17.77,0,0,0,12.15,5c5.1,0,9.24-3.1,9.24-8,0-4.63-2.28-7.46-10.14-9.59-7-1.94-10.9-6.21-10.9-11.87S232,11.94,239.64,11.94A18.47,18.47,0,0,1,250,15.39l-.83,3.24a18.26,18.26,0,0,0-9.52-3.31c-5.39,0-8.63,2.9-8.63,7,0,3.38,1.93,6.35,8.63,8.14,8.07,2.14,12.42,6.14,12.42,12.83,0,7.87-6.7,11.87-13.11,11.87A19,19,0,0,1,226,50.51Z"/><path class="cls-1" d="M259,12.83h3.8V35.12c0,11.46,5.31,16.63,13.32,16.63s13.38-5.17,13.38-16.63V12.83h3.8V35.05c0,13.94-6.9,20.22-17.18,20.22S259,49,259,35.05Z"/><path class="cls-1" d="M306,12.83v38h19.67v3.38H302.22V12.83Z"/><path class="cls-1" d="M319.47,16.21V12.83h33.32v3.38H338v38h-3.8v-38Z"/><line id="Ligne_7" data-name="Ligne 7" class="cls-2" x1="159.36" y1="25.7" x2="159.36" y2="39.24"/><line id="Ligne_8" data-name="Ligne 8" class="cls-2" x1="166.13" y1="32.47" x2="152.59" y2="32.47"/><g id="Calque_1-3" data-name="Calque 1"><path id="Tracé_10" data-name="Tracé 10" class="cls-3" d="M180.57,32.53a21,21,0,0,1-6.8,15.5,21.18,21.18,0,0,1-22.15,4.14,2.66,2.66,0,0,0-2,0,18.13,18.13,0,0,1-9.62.92,1.66,1.66,0,0,1-1.43-1.19,1.64,1.64,0,0,1,.59-1.81,15.21,15.21,0,0,0,2.75-2.86,2.08,2.08,0,0,0,.09-2.65A21.45,21.45,0,0,1,138.5,36a20.09,20.09,0,0,1-.31-4.24.5.5,0,0,1,.44-.55h.08c.34,0,.51.23.51.59A19.7,19.7,0,0,0,139.7,37a20.45,20.45,0,0,0,3.11,7,3.09,3.09,0,0,1-.1,3.8,14.16,14.16,0,0,1-1.05,1.25A12.84,12.84,0,0,1,140,50.69a.78.78,0,0,0-.41.85c.11.37.41.48.77.54a17.17,17.17,0,0,0,9-.92,3.4,3.4,0,0,1,2.62,0,18.53,18.53,0,0,0,7.85,1.43,19.81,19.81,0,0,0,18.06-12,18.74,18.74,0,0,0,1.63-9.93,20.18,20.18,0,0,0-39.7-3,.72.72,0,0,1-.12.21c-.09.3-.3.5-.61.41a.52.52,0,0,1-.41-.6l0-.09a19.56,19.56,0,0,1,1.2-3.58,20.63,20.63,0,0,1,14.84-12.13A20.39,20.39,0,0,1,173,16.34a20.67,20.67,0,0,1,7.38,12.49,20.79,20.79,0,0,1,.24,3.7Z"/><path id="Tracé_11" data-name="Tracé 11" class="cls-4" d="M138.2,31.37c.06-.73.23-2.24.33-2.83a4.31,4.31,0,0,1,.24-1.12c.12-.16.26.18.38.25s.71-.63.65,0-.53,2.67-.65,4.61c0,.56,0-.77-.15-.6s-.28.2-.4.11-.45.2-.39-.41Z"/></g></g></g></svg>